PathFileType	4	(X/Y/Z)	/Users/itak/Documents/Research/Walk-IL/dataset/trc/00445_00167.trc
DataRate	CameraRate	NumFrames	NumMarkers	Units	OrigDataRate	OrigDataStartFrame	OrigNumFrames
100.000000	100.000000	4	54	mm	100.000000	187	501
Frame#	Time	RPSI			L3			STRN			T10			C7			CLAV			RBAK			LBAK			LSHO			LUPA			LAEL			LAOL			LWTS			LWPS			LFRA			LIFD			LHPS			LHTS			RSHO			RUPA			RAEL			RAOL			RWTS			RWPS			RFRA			RIFD			RHTS			RHPS			RBHD			LFHD			RFHD			LBHD			LHIP			RHIP			RASI			LASI			LKNE			LTHI			LANK			LTIP			LTOE			LMT1			LMT5			LHEE			RKNE			RTHI			RANK			RTIP			RTOE			RMT1			RMT5			RHEE			LPSI			*53			
		X1	Y1	Z1	X2	Y2	Z2	X3	Y3	Z3	X4	Y4	Z4	X5	Y5	Z5	X6	Y6	Z6	X7	Y7	Z7	X8	Y8	Z8	X9	Y9	Z9	X10	Y10	Z10	X11	Y11	Z11	X12	Y12	Z12	X13	Y13	Z13	X14	Y14	Z14	X15	Y15	Z15	X16	Y16	Z16	X17	Y17	Z17	X18	Y18	Z18	X19	Y19	Z19	X20	Y20	Z20	X21	Y21	Z21	X22	Y22	Z22	X23	Y23	Z23	X24	Y24	Z24	X25	Y25	Z25	X26	Y26	Z26	X27	Y27	Z27	X28	Y28	Z28	X29	Y29	Z29	X30	Y30	Z30	X31	Y31	Z31	X32	Y32	Z32	X33	Y33	Z33	X34	Y34	Z34	X35	Y35	Z35	X36	Y36	Z36	X37	Y37	Z37	X38	Y38	Z38	X39	Y39	Z39	X40	Y40	Z40	X41	Y41	Z41	X42	Y42	Z42	X43	Y43	Z43	X44	Y44	Z44	X45	Y45	Z45	X46	Y46	Z46	X47	Y47	Z47	X48	Y48	Z48	X49	Y49	Z49	X50	Y50	Z50	X51	Y51	Z51	X52	Y52	Z52	X53	Y53	Z53	X54	Y54	Z54	

188	1.87	-1524.395263671875	926.2545776367188	-620.8231201171875	-1460.571411132812	1042.505737304688	-662.1751708984375	-1195.821655273438	1182.115356445312	-492.5547180175781	-1439.89990234375	1167.508911132812	-664.1033325195312	-1342.612548828125	1414.54541015625	-590.3126831054688	-1202.070434570312	1301.108520507812	-505.9306945800781	-1466.180541992188	1318.550415039062	-563.6844482421875	-1316.07958984375	1371.010498046875	-694.3245849609375	-1186.012329101562	1373.12109375	-697.4002685546875	-1135.286376953125	1266.664672851562	-793.4605102539062	-1060.025268554688	1074.23046875	-819.4402465820312	-1152.544799804688	1023.143371582031	-823.5516357421875	-978.9976196289062	978.3034057617188	-640.34814453125	-955.3135375976562	928.6983032226562	-690.2432861328125	-1009.267272949219	1017.278991699219	-770.0723876953125	-914.551513671875	850.746337890625	-546.5428466796875	-926.0799560546875	871.3013305664062	-639.786376953125	-931.8775634765625	919.0635986328125	-586.8734741210938	-1383.548583984375	1379.740478515625	-422.3232421875	-1456.840576171875	1335.988159179688	-382.7861328125	-1601.36865234375	1092.3984375	-359.0037841796875	-1625.81689453125	1094.601806640625	-423.4674987792969	-1596.371948242188	864.223876953125	-361.8592529296875	-1681.564453125	885.2593383789062	-357.8397216796875	-1630.255249023438	1040.354248046875	-355.2660827636719	-1662.335205078125	721.4619750976562	-364.5597534179688	-1632.279174804688	771.81787109375	-352.0513610839844	-1703.756591796875	798.9071044921875	-357.7649841308594	-1329.255004882812	1590.979858398438	-481.5257568359375	-1133.55859375	1616.227416992188	-545.873291015625	-1202.789306640625	1621.203979492188	-434.5240173339844	-1249.3466796875	1586.560913085938	-640.6480102539062	-1265.460083007812	826.8178100585938	-758.54345703125	-1493.286254882812	834.3700561523438	-426.8923034667969	-1381.45751953125	880.6068115234375	-439.639404296875	-1228.88671875	859.738037109375	-640.1280517578125	-1339.692626953125	407.7378234863281	-720.98681640625	-1280.206176757812	556.1654663085938	-718.7745971679688	-1518.50390625	33.04174423217773	-831.9573364257812	-1389.373779296875	260.4352722167969	-759.3892822265625	-1396.413330078125	47.47217178344727	-630.3538208007812	-1471.076782226562	50.83373641967773	-654.8222045898438	-1396.873779296875	47.29419708251953	-742.5592651367188	-1595.696411132812	35.83090591430664	-827.6129760742188	-1309.473388671875	506.8869018554688	-320.2078857421875	-1410.669921875	732.4351806640625	-366.6022338867188	-1571.673828125	202.8436584472656	-484.2115783691406	-1390.2880859375	394.9735717773438	-354.2259216308594	-1411.266357421875	87.66390991210938	-412.008544921875	-1427.45361328125	114.0500564575195	-474.2813110351562	-1505.399780273438	122.8883666992188	-402.17333984375	-1586.063354492188	235.7171173095703	-555.7633056640625	-1438.37841796875	935.822265625	-734.6006469726562	nan	nan	nan	
189	1.88	-1520.614135742188	923.7951049804688	-615.2294311523438	-1455.909057617188	1040.696044921875	-657.296875	-1188.6083984375	1178.0146484375	-488.5132446289062	-1433.571899414062	1165.4736328125	-659.3009643554688	-1334.085693359375	1411.991333007812	-585.18408203125	-1193.9013671875	1297.119873046875	-501.3417053222656	-1457.852783203125	1316.554443359375	-558.46875	-1308.179443359375	1368.439453125	-689.6022338867188	-1178.1064453125	1370.15380859375	-692.5318603515625	-1126.999633789062	1264.155883789062	-788.8283081054688	-1048.726928710938	1074.578125	-814.0999145507812	-1139.636840820312	1019.896301269531	-817.1795043945312	-965.4654541015625	989.1870727539062	-631.2018432617188	-939.76953125	938.4021606445312	-678.9819946289062	-996.479248046875	1021.459655761719	-762.3720092773438	-895.4552001953125	868.622314453125	-532.2584838867188	-908.2200927734375	884.5421142578125	-626.3441162109375	-915.922607421875	934.2664794921875	-575.435791015625	-1374.404541015625	1377.010009765625	-417.1154479980469	-1448.187133789062	1334.469116210938	-377.6474914550781	-1598.429931640625	1094.66845703125	-355.2303161621094	-1622.277587890625	1097.583251953125	-419.7481994628906	-1600.419921875	866.0634765625	-359.2393798828125	-1684.876098632812	890.1549072265625	-355.2789916992188	-1628.909301757812	1043.483032226562	-351.83984375	-1671.911254882812	725.8290405273438	-363.6947631835938	-1639.7978515625	774.8695678710938	-350.6781311035156	-1710.34033203125	804.755126953125	-355.98486328125	-1320.933471679688	1587.419067382812	-476.9665832519531	-1125.120727539062	1612.97509765625	-540.8889770507812	-1194.620727539062	1617.930297851562	-429.7086181640625	-1240.711059570312	1583.02734375	-635.9356689453125	-1263.027954101562	824.775146484375	-755.1908569335938	-1487.336669921875	833.2786254882812	-420.9143981933594	-1375.814331054688	879.894775390625	-434.9556579589844	-1225.523071289062	857.7154541015625	-637.3364868164062	-1336.156982421875	405.7518310546875	-717.79052734375	-1276.784057617188	554.247802734375	-715.6124877929688	-1518.5126953125	33.46201705932617	-831.6561889648438	-1387.395751953125	259.0616455078125	-757.5523071289062	-1396.3193359375	46.86508941650391	-630.1342163085938	-1471.023071289062	50.88618087768555	-654.7782592773438	-1396.581665039062	47.11532211303711	-742.6256713867188	-1595.637817382812	36.51218414306641	-827.483642578125	-1297.390380859375	509.9642639160156	-312.6160888671875	-1402.88330078125	733.0707397460938	-360.3931579589844	-1559.199584960938	205.1202239990234	-475.1712951660156	-1377.759399414062	397.9266357421875	-346.1672668457031	-1398.110595703125	91.89521789550781	-402.6115417480469	-1414.414672851562	117.4524459838867	-465.2385559082031	-1492.388916015625	125.9695816040039	-393.1660461425781	-1574.134887695312	237.9627990722656	-546.7163696289062	-1435.853881835938	933.4622192382812	-729.857421875	nan	nan	nan	
190	1.89	-1516.535522460938	921.6442260742188	-609.3327026367188	-1450.97509765625	1038.993896484375	-652.1832885742188	-1181.215576171875	1174.06005859375	-484.3118591308594	-1426.963012695312	1163.4931640625	-654.3140869140625	-1325.478271484375	1409.5263671875	-579.8585205078125	-1185.610595703125	1293.271118164062	-496.5757141113281	-1449.3623046875	1314.52001953125	-553.0377807617188	-1300.161376953125	1366.015502929688	-684.74169921875	-1170.061279296875	1367.406616210938	-687.4320678710938	-1118.392211914062	1261.874755859375	-783.9061889648438	-1037.385620117188	1075.070678710938	-808.3578491210938	-1126.505004882812	1016.859130859375	-810.2567138671875	-952.3817138671875	1000.117919921875	-622.1939086914062	-924.6764526367188	948.333251953125	-667.8388061523438	-983.8298950195312	1025.823486328125	-754.4719848632812	-877.1194458007812	887.0413208007812	-518.4207153320312	-890.9312744140625	898.1848754882812	-613.1813354492188	-900.5966186523438	949.7183227539062	-564.3532104492188	-1365.177978515625	1374.321411132812	-411.7171630859375	-1439.407470703125	1332.953369140625	-372.3162231445312	-1595.198120117188	1097.029907226562	-351.3232421875	-1618.336303710938	1100.595581054688	-415.8987426757812	-1603.996459960938	868.2403564453125	-356.4111328125	-1687.609497070312	895.2666625976562	-352.5736083984375	-1627.214599609375	1046.744262695312	-348.2997131347656	-1680.729248046875	730.677490234375	-362.4750061035156	-1646.767944335938	778.3258666992188	-349.019775390625	-1716.185546875	810.9070434570312	-353.9884338378906	-1312.496337890625	1584.0458984375	-472.1991577148438	-1116.550170898438	1609.838500976562	-535.6703491210938	-1186.313110351562	1614.781616210938	-424.6610412597656	-1231.953735351562	1579.664794921875	-630.9871826171875	-1260.544555664062	822.6685791015625	-751.6727294921875	-1481.194702148438	832.504150390625	-414.660400390625	-1369.904907226562	879.3138427734375	-430.0288696289062	-1221.92138671875	855.5462036132812	-634.344482421875	-1332.769653320312	403.790771484375	-714.7382202148438	-1273.492309570312	552.2874755859375	-712.5501098632812	-1518.588989257812	33.96809768676758	-831.3690185546875	-1385.523559570312	257.7501525878906	-755.785888671875	-1396.320556640625	46.37900161743164	-629.96142578125	-1470.97802734375	50.9476432800293	-654.7537231445312	-1396.395874023438	47.00434112548828	-742.709716796875	-1595.636108398438	37.38210296630859	-827.4054565429688	-1285.501586914062	513.1223754882812	-305.0688171386719	-1395.0341796875	733.9314575195312	-353.9984741210938	-1546.321044921875	206.6060638427734	-465.8025512695312	-1365.253784179688	400.7594299316406	-338.0165100097656	-1384.248046875	95.76469421386719	-392.8835754394531	-1400.72705078125	120.4542007446289	-455.827880859375	-1478.763916015625	128.4573822021484	-383.8050537109375	-1561.8505859375	239.3436737060547	-537.3844604492188	-1433.179931640625	931.2552490234375	-724.8861083984375	nan	nan	nan	
191	1.9	-1512.105102539062	919.89453125	-603.1265869140625	-1445.739868164062	1037.453002929688	-646.8409423828125	-1173.637817382812	1170.329467773438	-479.932861328125	-1420.085083007812	1161.636962890625	-649.1398315429688	-1316.8046875	1407.2021484375	-574.3279418945312	-1177.208618164062	1289.64404296875	-491.6161804199219	-1440.729858398438	1312.511352539062	-547.3763427734375	-1292.022705078125	1363.799682617188	-679.7247314453125	-1161.885498046875	1364.9423828125	-682.0850219726562	-1109.49658203125	1259.876708984375	-778.66064453125	-1026.052978515625	1075.725830078125	-802.2244873046875	-1113.212768554688	1014.082641601562	-802.8115844726562	-939.7649536132812	1010.938842773438	-613.35400390625	-910.075927734375	958.3416748046875	-656.865966796875	-971.350341796875	1030.317993164062	-746.390869140625	-859.64599609375	905.7447509765625	-505.1036682128906	-874.2819213867188	912.0230712890625	-600.3710327148438	-885.946533203125	965.1990966796875	-553.6842041015625	-1355.892456054688	1371.73291015625	-406.1180419921875	-1430.526733398438	1331.481079101562	-366.7798767089844	-1591.63916015625	1099.4755859375	-347.2656860351562	-1613.9951171875	1103.66015625	-411.9273986816406	-1607.009643554688	870.7283935546875	-353.3666076660156	-1689.6787109375	900.5404052734375	-349.6989135742188	-1625.118896484375	1050.120849609375	-344.627197265625	-1688.677490234375	735.9392700195312	-360.878173828125	-1653.0517578125	782.1407470703125	-347.0448913574219	-1721.184326171875	817.291748046875	-351.7690124511719	-1303.934814453125	1580.93896484375	-467.1957397460938	-1107.852416992188	1606.87744140625	-530.2056884765625	-1177.856567382812	1611.815307617188	-419.3604431152344	-1223.074096679688	1576.557861328125	-625.782470703125	-1257.959594726562	820.5460815429688	-747.9774780273438	-1474.812744140625	832.113525390625	-408.1321105957031	-1363.684692382812	878.88427734375	-424.8753662109375	-1218.019287109375	853.2609252929688	-631.1109619140625	-1329.566528320312	401.9145812988281	-711.8754272460938	-1270.34033203125	550.3340454101562	-709.598876953125	-1518.732421875	34.55583953857422	-831.1221313476562	-1383.762329101562	256.5578308105469	-754.1178588867188	-1396.401489257812	45.99679565429688	-629.838623046875	-1470.933471679688	51.01055145263672	-654.7493286132812	-1396.317260742188	46.94937133789062	-742.810302734375	-1595.693969726562	38.50014114379883	-827.3862915039062	-1273.861938476562	516.318603515625	-297.5651550292969	-1387.11474609375	735.0396728515625	-347.420166015625	-1533.083984375	207.3356323242188	-456.1687622070312	-1352.829711914062	403.4258117675781	-329.7884216308594	-1369.765991210938	99.24306488037109	-382.8303833007812	-1386.466918945312	123.0413055419922	-446.0694274902344	-1464.599243164062	130.397705078125	-374.104248046875	-1549.233276367188	239.8485717773438	-527.8401489257812	-1430.23046875	929.2467041015625	-719.6450805664062	nan	nan	nan	
